<svg width="32" height="32" viewBox="0 0 32 32" fill="none" xmlns="http://www.w3.org/2000/svg">
<path d="M15.0429 1.06547C14.03 1.19215 12.4185 1.74494 12.6027 1.89465C12.6372 1.91768 13.0976 2.10195 13.6386 2.32076C18.1851 4.08276 20.6023 8.12501 19.4397 11.9945C19.2211 12.7661 18.5765 14.0559 18.1621 14.5972L17.8629 15.0003L18.1966 14.8736C20.5562 13.9753 22.4439 11.9024 22.9043 9.72579C23.4453 7.16915 22.5475 4.42825 20.5793 2.67777C19.152 1.39945 17.0802 0.789079 15.0429 1.06547Z" fill="black"/>
<path d="M9.19577 3.35724C7.45774 3.62212 5.81178 4.64708 4.7068 6.14421C4.26942 6.73154 3.46371 8.29777 3.55579 8.3899C3.57881 8.41293 3.85505 8.30929 4.16583 8.15957C4.84493 7.81408 6.20313 7.35343 7.13545 7.14613C8.11382 6.93884 10.0821 6.96187 10.9914 7.20371C13.5811 7.8947 15.4688 9.73732 16.2745 12.3861C16.4127 12.8122 16.5162 13.2959 16.5162 13.4456C16.5162 13.9984 16.7464 13.699 17.0457 12.7661C17.4486 11.5224 17.5522 9.73732 17.2759 8.65478C16.7925 6.72003 15.3998 5.00409 13.5811 4.07126C12.3956 3.47241 10.4734 3.14995 9.19577 3.35724Z" fill="black"/>
<path d="M23.5374 3.51846C23.5374 3.54149 23.7216 3.94456 23.9403 4.40522C24.159 4.87739 24.4697 5.71808 24.6424 6.2939C24.9186 7.19218 24.9647 7.53767 24.9647 8.88509C24.9762 10.2095 24.9302 10.5665 24.7115 11.3035C23.9748 13.6529 22.4209 15.2882 20.1304 16.1289C19.624 16.3132 18.9679 16.4974 18.6456 16.5435L18.0816 16.6356L18.9449 16.9466C21.8684 18.0176 24.5158 17.4993 26.5416 15.4494C29.7069 12.2479 29.3616 7.23825 25.8049 4.69313C25.1834 4.24399 23.5374 3.40329 23.5374 3.51846Z" fill="black"/>
<path d="M7.13541 9.00027C5.50097 9.2306 4.00465 10.0137 2.8191 11.2575C1.47241 12.674 0.908411 14.2863 1.012 16.3708C1.06955 17.3957 1.49543 19.1232 1.78318 19.3996C1.82923 19.4571 1.93282 19.3074 2.01339 19.0541C2.32416 18.1212 3.18743 16.4283 3.75142 15.6683C4.8564 14.1826 6.19158 13.1692 7.82602 12.6164C8.5857 12.3631 8.95402 12.3055 9.95541 12.3055C11.5899 12.294 12.879 12.6855 14.3178 13.6529C14.8703 14.0214 14.9163 14.0329 14.8357 13.8026C14.4214 12.4206 12.6027 10.2786 11.2791 9.64519C10.013 9.03482 8.53966 8.80449 7.13541 9.00027Z" fill="black"/>
<path d="M30.0291 12.7431C29.2119 15.0003 28.4177 16.3132 27.1516 17.5339C26.2308 18.4092 25.2754 19.008 24.228 19.3765C23.2151 19.7335 21.3389 19.8142 20.303 19.5493C19.4628 19.3305 18.0125 18.674 17.4715 18.2594C17.2758 18.1097 17.0802 17.983 17.0456 17.983C16.9305 17.983 17.8974 19.8026 18.3118 20.3554C19.2441 21.5877 20.6368 22.5205 22.0756 22.9005C23.0309 23.1424 25.1603 23.0503 26.0696 22.7278C29.9831 21.3343 31.8823 17.5685 30.6046 13.7335C30.2133 12.5819 30.1442 12.4437 30.0291 12.7431Z" fill="black"/>
<path d="M8.86216 14.6433C6.24935 15.173 4.09695 17.3727 3.46389 20.1481C3.24519 21.0925 3.22217 22.3247 3.40634 23.1884C3.72862 24.7316 4.97172 26.5397 6.34143 27.4495C7.08959 27.9332 8.13702 28.4629 8.35571 28.4629C8.41326 28.4629 8.30967 28.1635 8.13702 27.795C7.04355 25.6299 6.68674 23.0272 7.19318 21.0464C7.52698 19.7335 8.04494 18.7661 8.93122 17.8333C10.0592 16.6126 11.5095 15.8295 13.167 15.5185L13.9266 15.3803L13.2475 15.1155C11.7742 14.5627 10.1398 14.3899 8.86216 14.6433Z" fill="black"/>
<path d="M12.9481 17.5339C11.2676 18.4552 10.2893 19.3996 9.59865 20.77C7.92967 24.0867 9.42599 28.5781 12.7409 30.2595C14.5941 31.1923 16.9882 31.2499 18.9449 30.3977L19.5204 30.1559L18.5651 29.7988C15.5264 28.6472 13.443 26.7009 12.5913 24.2019C12.2115 23.0733 12.1539 21.4034 12.4762 20.2518C12.7064 19.388 13.2474 18.2249 13.7653 17.4303C13.8919 17.2345 13.961 17.0617 13.9034 17.0617C13.8574 17.0617 13.42 17.2805 12.9481 17.5339Z" fill="black"/>
<path d="M14.9854 19.0886C14.0531 21.7949 14.502 24.3976 16.24 26.2748C17.2875 27.4034 18.6111 28.198 19.9923 28.5205C20.9132 28.7393 22.6052 28.7393 23.4224 28.5205C25.4136 27.9908 27.2322 26.4015 28.13 24.3976C28.3257 23.9715 28.4408 23.626 28.3948 23.626C28.3487 23.626 27.8538 23.8218 27.2783 24.0752C25.5633 24.8122 24.8611 24.9504 22.962 24.9504C21.4426 24.9504 21.2124 24.9159 20.3952 24.628C17.7248 23.6951 16.24 21.8986 15.3998 18.5704L15.3077 18.1673L14.9854 19.0886Z" fill="black"/>
</svg>
